<svg width="594" height="120" viewBox="0 0 594 120" fill="none" xmlns="http://www.w3.org/2000/svg">
<path d="M3.84 65.704C3.84 59.7307 5.12 53.672 7.68 47.528C10.24 41.2987 13.8667 35.5387 18.56 30.248C23.2533 24.9573 29.3547 20.648 36.864 17.32C44.4587 13.9067 52.2667 12.2 60.288 12.2C68.3947 12.2 74.7093 13.6933 79.232 16.68C83.84 19.6667 86.144 23.8053 86.144 29.096C86.144 34.3867 84.3947 38.5253 80.896 41.512C77.4827 44.4133 73.5573 45.864 69.12 45.864C64.6827 45.864 60.672 44.9253 57.088 43.048C53.5893 41.0853 50.7733 38.312 48.64 34.728C44.032 36.9467 40.064 41.2987 36.736 47.784C33.408 54.2693 31.744 60.7973 31.744 67.368C31.744 73.8533 32.8107 79.016 34.944 82.856C37.0773 86.6107 40.1067 88.488 44.032 88.488C47.9573 88.488 51.4133 86.4827 54.4 82.472C57.472 78.4613 59.008 73.64 59.008 68.008C67.6267 68.008 73.7707 68.6907 77.44 70.056C81.1947 71.4213 83.072 74.3653 83.072 78.888C83.072 85.9707 79.232 92.6267 71.552 98.856C63.872 105.085 54.2293 108.2 42.624 108.2C31.0187 108.2 21.632 104.616 14.464 97.448C7.38133 90.28 3.84 79.6987 3.84 65.704ZM142.031 87.208L137.551 74.28C133.114 74.28 128.634 73.5973 124.111 72.232C123.172 77.6933 122.703 81.6187 122.703 84.008C122.703 92.2853 123.983 98.472 126.543 102.568C121.423 106.408 116.09 108.328 110.543 108.328C104.996 108.328 101.028 106.749 98.639 103.592C96.2497 100.349 95.055 95.5707 95.055 89.256C95.055 82.856 97.743 64.808 103.119 35.112L96.335 21.416C105.892 15.272 114.682 12.2 122.703 12.2C128.847 12.2 133.583 13.48 136.911 16.04C143.311 13.48 149.071 12.2 154.191 12.2C162.042 12.2 168.271 14.8453 172.879 20.136C177.487 25.4267 179.791 31.784 179.791 39.208C179.791 44.7547 178.383 50.1307 175.567 55.336C172.751 60.456 168.612 64.6373 163.151 67.88C166.052 76.1573 169.295 83.2827 172.879 89.256C176.548 95.2293 180.175 99.1973 183.759 101.16C181.967 103.037 179.194 104.659 175.439 106.024C171.77 107.475 168.442 108.2 165.455 108.2C159.652 108.2 155.002 106.749 151.503 103.848C148.004 100.861 144.847 95.3147 142.031 87.208ZM129.743 58.28C136.57 58.28 141.86 56.5307 145.615 53.032C149.455 49.5333 151.375 45.7787 151.375 41.768C151.375 37.7573 150.266 34.5573 148.047 32.168C145.828 29.7787 142.671 28.584 138.575 28.584C136.356 28.584 134.138 28.8827 131.919 29.48C129.188 45.7787 127.482 55.336 126.799 58.152C127.396 58.2373 128.378 58.28 129.743 58.28Z" fill="#FCFCFC"/>
<path d="M356.984 84.904L360.056 82.856C354.509 72.1893 351.736 60.4987 351.736 47.784C351.736 37.8853 354.168 29.48 359.032 22.568C363.981 15.656 370.936 12.2 379.896 12.2C384.589 12.2 388.557 13.0107 391.8 14.632C390.947 19.4107 389.411 27.7307 387.192 39.592C382.413 65.1067 380.024 79.7413 380.024 83.496C380.024 91.6027 381.389 97.6613 384.12 101.672C380.365 104.147 376.909 105.853 373.752 106.792C370.595 107.731 366.499 108.2 361.464 108.2C356.515 108.2 351.992 107.133 347.896 105C343.885 102.867 340.557 100.051 337.912 96.552C335.352 92.968 333.176 88.5733 331.384 83.368C328.227 74.2373 326.307 62.632 325.624 48.552H323.576C319.651 66.3013 317.688 78.7173 317.688 85.8C317.688 92.8827 318.968 98.472 321.528 102.568C316.408 106.408 311.075 108.328 305.528 108.328C299.981 108.328 296.013 106.749 293.624 103.592C291.235 100.349 290.04 95.5707 290.04 89.256C290.04 82.856 292.728 64.808 298.104 35.112L291.32 21.416C300.877 15.272 309.411 12.2 316.92 12.2C324.429 12.2 330.104 13.5227 333.944 16.168C337.784 18.728 340.472 22.5253 342.008 27.56C343.544 32.5947 344.653 37.928 345.336 43.56C346.104 49.1067 347.384 55.8053 349.176 63.656C351.053 71.5067 353.656 78.5893 356.984 84.904Z" fill="#FCFCFC"/>
<path d="M546.992 11.2C558.256 11.2 566.704 12.5227 572.336 15.168C577.968 17.728 580.784 21.8667 580.784 27.584C580.784 33.216 579.035 37.5253 575.536 40.512C572.123 43.4133 568.197 44.864 563.76 44.864C559.323 44.864 555.312 43.7547 551.728 41.536C548.229 39.232 545.797 36.2027 544.432 32.448C541.275 32.448 538.245 33.5147 535.344 35.648C532.528 37.696 530.736 40.384 529.968 43.712C546.864 47.808 558.981 52.5867 566.32 58.048C573.659 63.5093 577.328 70.5067 577.328 79.04C577.328 87.5733 573.445 94.4 565.68 99.52C558 104.64 547.589 107.2 534.448 107.2C521.392 107.2 512.133 105.408 506.672 101.824C501.211 98.24 498.48 93.504 498.48 87.616C498.48 81.728 500.315 76.3093 503.984 71.36C505.776 75.2 509.189 78.656 514.224 81.728C519.344 84.8 524.379 86.336 529.328 86.336C538.459 86.336 544.261 83.4347 546.736 77.632C532.571 75.7547 521.776 71.8293 514.352 65.856C506.928 59.7973 503.216 52.5013 503.216 43.968C503.216 38.2507 504.752 33.1733 507.824 28.736C510.896 24.2133 514.821 20.7573 519.6 18.368C528.987 13.5893 538.117 11.2 546.992 11.2Z" fill="#FCFCFC"/>
<path d="M250.491 63.1689L240 57.1143V35C240 33.6739 239.473 32.4021 238.536 31.4645C237.598 30.5268 236.326 30 235 30C233.674 30 232.402 30.5268 231.464 31.4645C230.527 32.4021 230 33.6739 230 35V60C230 60.8779 230.231 61.7403 230.67 62.5006C231.108 63.2609 231.74 63.8922 232.5 64.3311L245.491 71.8311C246.059 72.1598 246.687 72.3732 247.339 72.4591C247.99 72.545 248.652 72.5018 249.286 72.3319C249.921 72.162 250.516 71.8687 251.037 71.4688C251.558 71.0689 251.996 70.5702 252.324 70.0013C252.652 69.4323 252.865 68.8043 252.951 68.1529C253.037 67.5016 252.993 66.8398 252.823 66.2053C252.653 65.5708 252.359 64.9761 251.959 64.4551C251.559 63.9341 251.06 63.4971 250.491 63.1689ZM235 10C225.111 10 215.444 12.9324 207.221 18.4265C198.999 23.9206 192.59 31.7295 188.806 40.8658C185.022 50.0021 184.031 60.0555 185.961 69.7545C187.89 79.4536 192.652 88.3627 199.645 95.3553C206.637 102.348 215.546 107.11 225.245 109.039C234.945 110.969 244.998 109.978 254.134 106.194C263.27 102.41 271.079 96.001 276.573 87.7785C282.068 79.5561 285 69.8891 285 60C284.985 46.7437 279.713 34.0346 270.339 24.6609C260.965 15.2873 248.256 10.0147 235 10ZM235 100C227.089 100 219.355 97.654 212.777 93.2588C206.199 88.8635 201.072 82.6164 198.045 75.3073C195.017 67.9983 194.225 59.9556 195.769 52.1964C197.312 44.4371 201.122 37.3098 206.716 31.7157C212.31 26.1216 219.437 22.312 227.196 20.7686C234.956 19.2252 242.998 20.0173 250.307 23.0448C257.616 26.0723 263.864 31.1992 268.259 37.7772C272.654 44.3552 275 52.0887 275 60C274.988 70.6049 270.77 80.772 263.271 88.2709C255.772 95.7697 245.605 99.9879 235 100Z" fill="#FCFCFC"/>
<path d="M458.491 63.1689L448 57.1143V35C448 33.6739 447.473 32.4021 446.536 31.4645C445.598 30.5268 444.326 30 443 30C441.674 30 440.402 30.5268 439.464 31.4645C438.527 32.4021 438 33.6739 438 35V60C438 60.8779 438.231 61.7403 438.67 62.5006C439.108 63.2609 439.74 63.8922 440.5 64.3311L453.491 71.8311C454.059 72.1598 454.687 72.3732 455.339 72.4591C455.99 72.545 456.652 72.5018 457.286 72.3319C457.921 72.162 458.516 71.8687 459.037 71.4688C459.558 71.0689 459.996 70.5702 460.324 70.0013C460.652 69.4323 460.865 68.8043 460.951 68.1529C461.037 67.5016 460.993 66.8398 460.823 66.2053C460.653 65.5708 460.359 64.9761 459.959 64.4551C459.559 63.9341 459.06 63.4971 458.491 63.1689ZM443 10C433.111 10 423.444 12.9324 415.221 18.4265C406.999 23.9206 400.59 31.7295 396.806 40.8658C393.022 50.0021 392.031 60.0555 393.961 69.7545C395.89 79.4536 400.652 88.3627 407.645 95.3553C414.637 102.348 423.546 107.11 433.245 109.039C442.945 110.969 452.998 109.978 462.134 106.194C471.27 102.41 479.079 96.001 484.573 87.7785C490.068 79.5561 493 69.8891 493 60C492.985 46.7437 487.713 34.0346 478.339 24.6609C468.965 15.2873 456.256 10.0147 443 10ZM443 100C435.089 100 427.355 97.654 420.777 93.2588C414.199 88.8635 409.072 82.6164 406.045 75.3073C403.017 67.9983 402.225 59.9556 403.769 52.1964C405.312 44.4371 409.122 37.3098 414.716 31.7157C420.31 26.1216 427.437 22.312 435.196 20.7686C442.956 19.2252 450.998 20.0173 458.307 23.0448C465.616 26.0723 471.864 31.1992 476.259 37.7772C480.654 44.3552 483 52.0887 483 60C482.988 70.6049 478.77 80.772 471.271 88.2709C463.772 95.7697 453.605 99.9879 443 100Z" fill="#FCFCFC"/>
</svg>
